<svg width="27" height="27" viewBox="0 0 27 27" fill="none" xmlns="http://www.w3.org/2000/svg">
<circle cx="13.5" cy="13.5" r="13.5" fill="#00FFD2"/>
<path d="M14.2941 14.0328C14.2941 16.7896 14.6571 17.3109 19.221 19.9335C22.4158 21.7692 16.2907 18.6241 16.2906 14.0328C16.2906 9.70563 22.4835 6.93018 19.2211 8.39437C14.8386 10.3613 14.2941 9.96788 14.2941 14.0328Z" fill="#006654"/>
<path d="M14.3214 13.9591C14.3214 16.7159 14.6571 17.3108 19.221 19.9333C22.4158 21.7691 17.7624 19.4692 15.1634 15.2546C12.0478 10.2022 20.7211 8.06462 19.221 8.39422C14.8386 10.3611 14.3214 9.94308 14.3214 13.9591Z" fill="#006654"/>
<path d="M14.0077 14.0328C14.0077 16.7896 13.6447 17.3109 9.08072 19.9335C5.88594 21.7692 12.0111 18.6241 12.0111 14.0328C12.0111 9.70563 5.81827 6.93018 9.0807 8.39437C13.4632 10.3613 14.0077 9.96788 14.0077 14.0328Z" fill="#006654"/>
<path d="M13.9806 13.9591C13.9806 16.7159 13.6449 17.3108 9.08097 19.9333C5.88619 21.7691 10.5396 19.4692 13.1386 15.2546C16.2542 10.2022 7.58086 8.06462 9.08096 8.39422C13.4634 10.3611 13.9806 9.94308 13.9806 13.9591Z" fill="#006654"/>
</svg>
