<svg width="28" height="28" viewBox="0 0 28 28" fill="none" xmlns="http://www.w3.org/2000/svg">
<path fill-rule="evenodd" clip-rule="evenodd" d="M25.3785 9.66249H20.4928C18.2191 9.66649 16.3772 11.4624 16.3731 13.6792C16.37 15.901 18.214 17.7049 20.4928 17.7079H25.3826V18.0609C25.3826 21.9366 23.0331 24.2284 19.057 24.2284H8.63427C4.65717 24.2284 2.30762 21.9366 2.30762 18.0609V9.61949C2.30762 5.74377 4.65717 3.46094 8.63427 3.46094H19.0529C23.029 3.46094 25.3785 5.74377 25.3785 9.61949V9.66249ZM7.77582 9.65367H14.283H14.2871H14.2953C14.7824 9.65167 15.1762 9.2647 15.1742 8.78873C15.1721 8.31377 14.7742 7.92979 14.2871 7.93179H7.77582C7.29176 7.93379 6.89897 8.31677 6.89692 8.78973C6.89487 9.2647 7.28868 9.65167 7.77582 9.65367Z" fill="#00FFD2"/>
<path opacity="0.4" d="M18.5034 14.187C18.7446 15.2845 19.7068 16.0566 20.8053 16.0365H24.5549C25.012 16.0365 25.3827 15.658 25.3827 15.1901V12.2693C25.3817 11.8024 25.012 11.4229 24.5549 11.4219H20.717C19.4675 11.4259 18.4582 12.4631 18.4602 13.7412C18.4602 13.8908 18.4749 14.0404 18.5034 14.187Z" fill="#00FFD2"/>
<ellipse cx="20.7678" cy="13.7299" rx="1.15375" ry="1.15375" fill="#00FFD2"/>
</svg>
