<svg width="23" height="23" viewBox="0 0 23 23" fill="none" xmlns="http://www.w3.org/2000/svg">
<rect width="23" height="23" rx="5.5" fill="#00FFD2"/>
<path fill-rule="evenodd" clip-rule="evenodd" d="M10.8615 11.1346H17.4385C17.9115 11.1346 18.3039 11.5269 18.3039 12V14.1346C18.3039 14.6192 17.9115 15 17.4385 15C16.9539 15 16.5731 14.6192 16.5731 14.1346V12.8654H15.0385V14.1346C15.0385 14.6192 14.6462 15 14.1731 15C13.6885 15 13.3077 14.6192 13.3077 14.1346V12.8654H10.8615C10.4923 14.1 9.36154 15 8.01154 15C6.35 15 5 13.6615 5 12C5 10.35 6.35 9 8.01154 9C9.36154 9 10.4923 9.9 10.8615 11.1346ZM6.73077 12.0002C6.73077 12.704 7.3077 13.2694 8.01154 13.2694C8.70385 13.2694 9.28078 12.704 9.28078 12.0002C9.28078 11.2963 8.70385 10.731 8.01154 10.731C7.3077 10.731 6.73077 11.2963 6.73077 12.0002Z" fill="#006654"/>
</svg>
