<svg width="29" height="29" viewBox="0 0 29 29" fill="none" xmlns="http://www.w3.org/2000/svg">
<g id="Iconly/Two-tone/Chat">
<g id="Chat">
<path id="Stroke 4" fill-rule="evenodd" clip-rule="evenodd" d="M23.0444 23.0431C19.3515 26.7363 13.8833 27.5342 9.40842 25.4648C8.74782 25.1988 8.20621 24.9838 7.69133 24.9838C6.25718 24.9923 4.47208 26.3829 3.54431 25.4563C2.61655 24.5284 4.0082 22.7419 4.0082 21.2991C4.0082 20.7841 3.80176 20.2522 3.53581 19.5903C1.46534 15.1161 2.26439 9.64607 5.95723 5.95403C10.6714 1.23818 18.3303 1.23818 23.0444 5.95282C27.767 10.676 27.7585 18.3284 23.0444 23.0431Z" stroke="#333333" stroke-width="1.8125" stroke-linecap="round" stroke-linejoin="round"/>
<path id="Stroke 11" opacity="0.4" d="M19.2599 14.9997H19.2707" stroke="#00876F" stroke-width="2.41667" stroke-linecap="round" stroke-linejoin="round"/>
<path id="Stroke 13" opacity="0.4" d="M14.4161 14.9997H14.427" stroke="#00876F" stroke-width="2.41667" stroke-linecap="round" stroke-linejoin="round"/>
<path id="Stroke 15" opacity="0.4" d="M9.57139 14.9997H9.58226" stroke="#00876F" stroke-width="2.41667" stroke-linecap="round" stroke-linejoin="round"/>
</g>
</g>
</svg>
