<svg width="20" height="20" viewBox="0 0 20 20" fill="none" xmlns="http://www.w3.org/2000/svg">
<path fill-rule="evenodd" clip-rule="evenodd" d="M8.16947 12.7104C8.68987 13.0632 9.3241 13.2765 9.99898 13.2765C11.7878 13.2765 13.2433 11.808 13.2433 10.003C13.2433 9.32208 13.0319 8.68215 12.6823 8.15708L11.796 9.05134C11.9423 9.33029 12.0236 9.65846 12.0236 10.003C12.0236 11.127 11.113 12.0459 9.99898 12.0459C9.65748 12.0459 9.33223 11.9638 9.05577 11.8162L8.16947 12.7104ZM15.3574 5.45789C16.5364 6.54085 17.5366 8.0012 18.2846 9.75691C18.3497 9.91279 18.3497 10.0933 18.2846 10.241C16.5446 14.3267 13.4466 16.7715 9.99898 16.7715H9.99085C8.42154 16.7715 6.91728 16.2547 5.5919 15.3112L4.01446 16.9028C3.89249 17.0259 3.738 17.0833 3.5835 17.0833C3.42901 17.0833 3.26639 17.0259 3.15255 16.9028C2.94927 16.6977 2.91675 16.3695 3.07937 16.1316L3.10377 16.0988L15.1297 3.96472C15.146 3.94831 15.1623 3.9319 15.1704 3.91549L15.1704 3.91549C15.1867 3.89908 15.2029 3.88267 15.2111 3.86627L15.9754 3.09507C16.2193 2.85715 16.6015 2.85715 16.8373 3.09507C17.0812 3.33299 17.0812 3.72679 16.8373 3.96472L15.3574 5.45789ZM6.74872 10.0062C6.74872 10.2195 6.77311 10.4329 6.80564 10.6298L3.79711 13.6653C2.98399 12.7136 2.27658 11.565 1.71553 10.2442C1.65049 10.0965 1.65049 9.91599 1.71553 9.76011C3.4556 5.6744 6.55357 3.23774 9.99305 3.23774H10.0012C11.1639 3.23774 12.2942 3.51668 13.335 4.04176L10.6191 6.78197C10.424 6.74915 10.2126 6.72454 10.0012 6.72454C8.20419 6.72454 6.74872 8.1931 6.74872 10.0062Z" fill="#9E9E9E"/>
</svg>
