<svg width="24" height="24" viewBox="0 0 24 24" fill="none" xmlns="http://www.w3.org/2000/svg">
<path opacity="0.4" fill-rule="evenodd" clip-rule="evenodd" d="M16.8459 1.1731H6.84402C3.35854 1.1731 1.17334 3.64097 1.17334 7.13337V16.5572C1.17334 20.0496 3.34816 22.5175 6.84402 22.5175H16.8447C20.3417 22.5175 22.5177 20.0496 22.5177 16.5572V7.13337C22.5177 3.64097 20.3417 1.1731 16.8459 1.1731Z" stroke="white" stroke-width="1.5" stroke-linecap="round" stroke-linejoin="round"/>
<path fill-rule="evenodd" clip-rule="evenodd" d="M10.3363 11.8452C10.3363 13.0244 9.37984 13.982 8.19956 13.982C7.02042 13.982 6.06396 13.0244 6.06396 11.8452C6.06396 10.6661 7.02042 9.7085 8.19956 9.7085C9.37984 9.7085 10.3363 10.6661 10.3363 11.8452Z" stroke="white" stroke-width="1.5" stroke-linecap="round" stroke-linejoin="round"/>
<path d="M10.3364 11.8452H17.6258V13.982" stroke="white" stroke-width="1.5" stroke-linecap="round" stroke-linejoin="round"/>
<path d="M14.362 13.9815V11.8447" stroke="white" stroke-width="1.5" stroke-linecap="round" stroke-linejoin="round"/>
</svg>
