<svg width="48" height="48" viewBox="0 0 48 48" fill="none" xmlns="http://www.w3.org/2000/svg">
<path d="M30.7001 27.7637L26.504 23.5699L30.6977 19.3762C31.5044 18.5718 31.5044 17.2628 30.6977 16.4585C29.8911 15.6471 28.5867 15.6494 27.78 16.4561L23.5839 20.6499L19.3878 16.4514C18.5811 15.6447 17.2744 15.6494 16.4677 16.4514C15.6634 17.2581 15.6634 18.5671 16.4677 19.3714L20.6662 23.5699L16.4772 27.7566C15.6705 28.5633 15.6705 29.8723 16.4772 30.6743C16.8805 31.08 17.4065 31.2805 17.9348 31.2805C18.4655 31.2805 18.9915 31.08 19.3949 30.6766L23.5839 26.4876L27.7824 30.6837C28.1857 31.0871 28.7117 31.2876 29.2401 31.2876C29.7684 31.2876 30.2967 31.0847 30.7001 30.6837C31.5068 29.8771 31.5068 28.5703 30.7001 27.7637Z" fill="#212121"/>
</svg>
