<svg width="22" height="22" viewBox="0 0 22 22" fill="none" xmlns="http://www.w3.org/2000/svg">
<path d="M11.0073 10.7787C11.0073 13.1909 11.325 13.6471 15.3185 15.9418C18.1139 17.5481 12.7544 14.7961 12.7544 10.7787C12.7543 6.99243 18.1731 4.5639 15.3185 5.84508C11.4838 7.56611 11.0073 7.22191 11.0073 10.7787Z" fill="white"/>
<path d="M11.0312 10.7145C11.0312 13.1267 11.3249 13.6472 15.3184 15.9419C18.1139 17.5482 14.0421 15.5358 11.768 11.8481C9.04183 7.42717 16.631 5.55679 15.3184 5.84519C11.4838 7.56622 11.0312 7.20045 11.0312 10.7145Z" fill="white"/>
<path d="M10.757 10.7787C10.757 13.1909 10.4393 13.6471 6.44581 15.9418C3.65037 17.5481 9.00988 14.7961 9.00992 10.7787C9.00996 6.99243 3.59116 4.5639 6.4458 5.84508C10.2805 7.56611 10.757 7.22191 10.757 10.7787Z" fill="white"/>
<path d="M10.733 10.7145C10.733 13.1267 10.4393 13.6472 6.44585 15.9419C3.65041 17.5482 7.72216 15.5358 9.99626 11.8481C12.7225 7.42717 5.13325 5.55679 6.44584 5.84519C10.2805 7.56622 10.733 7.20045 10.733 10.7145Z" fill="white"/>
<rect x="0.715" y="0.715" width="20.57" height="20.57" rx="10.285" stroke="#666666" stroke-width="1.43"/>
</svg>
